# xmcd
#
# Track frame offsets: 
#        150
#        14810
#        31167
#        52125
#        68390
#        86865
#        102335
#        115380
#        130022
#        147145
#        164630
#        180577
#        196625
#        212987
#        228982
#        248000
#        267770
#        284392
#
# Disc length: 4008 seconds
#
# Revision: 6
# Processed by: cddbd v1.5.2PL0 Copyright (c) Steve Scherf et al.
# Submitted via: ExactAudioCopyFreeDBPlugin 1.0
#
DISCID=030fa612
DTITLE=Shania Twain - Come On Over
DYEAR=1998
DGENRE=Country
TTITLE0=You're Still The One [Radio Edit]
TTITLE1=When
TTITLE2=From This Moment On
TTITLE3=Black Eyes, Blue Tears
TTITLE4=I Won't Leave You Lonely
TTITLE5=I'm Holdin' On To Love (To Say My Life)
TTITLE6=Come On Over
TTITLE7=You've Got A Way
TTITLE8=Whatever You Do! Don't!
TTITLE9=Man! I Feel Like A Woman!
TTITLE10=Love Gets Me Every Time
TTITLE11=Don't Be Stupid (You Know I Love You)
TTITLE12=That Don't Impress Me Much
TTITLE13=Honey, I'm Home
TTITLE14=If You Wanna Touch Her, Ask!
TTITLE15=Rock This Country!
TTITLE16=Love Gets Me Every Time [Mach 3 Remix]
TTITLE17=You're Still The One [Album Version]
EXTD=
EXTT0=
EXTT1=
EXTT2=
EXTT3=
EXTT4=
EXTT5=
EXTT6=
EXTT7=
EXTT8=
EXTT9=
EXTT10=
EXTT11=
EXTT12=
EXTT13=
EXTT14=
EXTT15=
EXTT16=
EXTT17=
PLAYORDER=
